<svg xmlns="http://www.w3.org/2000/svg" viewBox="0 0 311.4 131.5"><g data-name="Layer 2"><path d="M185.7 37.2a2.5 2.5 0 0 0 .6 0l4.5-.6c-.2-.2-.4 0-.7 0a2.6 2.6 0 0 1-.7 0l3.3-.5v.3l7.9-.8v-.1h-.8l1.2-.2-.2.3c.5.3 1 0 1.5 0v-.1l-.9-.1v-.1l1.5-.2-.5.4a29.7 29.7 0 0 0 3.7-.1c-.7-.5-1.3-.1-2-.2a2.1 2.1 0 0 1 1.2-.3l6.3-.4a1.5 1.5 0 0 1 1.2.2c0-.2 0-.4.2-.3a1.1 1.1 0 0 0 1.1.1h-.4l.1-.2 3.6-.3c1 0 1.9-.2 2.8-.3l4.6-.4 3-.3a4.1 4.1 0 0 1 1.9.1 4.3 4.3 0 0 0 1.4.1h5.2a1.5 1.5 0 0 0-1-.5h1.3v.3h4.5l3.1.1c1.1.1 2 0 3 .2l3 .3 1.4.2 3.7.7 2.8.6 2.4.5 3.4.8a4.2 4.2 0 0 1 1 .4l2.2 1c.3 0 .5.2.7.4a7.4 7.4 0 0 0 .8.4 2.3 2.3 0 0 1 1.2.9 18.1 18.1 0 0 1 1.2 1.8 9.6 9.6 0 0 0 .6 1.2l.8 1.2.3.2a2.2 2.2 0 0 0-.3-.9 2.1 2.1 0 0 1-.4-1 .3.3 0 0 0-.1-.2c-.5-.4-.7-1-1-1.7a2 2 0 0 1 .3.2 9.8 9.8 0 0 1 2 4.5l1 5.8.4 3 .3 4 .3 3.2.5 5 .6 5.9c0 1.4.1 2.8.3 4.1l.5 5.8.3 3.5c0 1 .2 1.9.3 2.9l-.7.3 1.8-.2 5.2-.7a449.2 449.2 0 0 1 10.2-1.2c.2 0 .4-.2.6.1.2-.4.5-.2.8-.3l4.7-.6 2.9-.4 6-.8 1.8-.1a1.4 1.4 0 0 1 .4 0l-1.7 2-3.5 4.7-5 6.6-3.2 4-2.8 3.8-3.3 4.4-4 5.3-2 2.5-2.9 3.7-1 1.4-3.4 4.4-3 3.7-.6.9a10.2 10.2 0 0 1-2.3-1.8l-6.2-5.2c-1.5-1.4-3-2.8-4.7-4.1l-6.2-5.1-4.5-3.9-4.3-3.5-7.7-6.3-3-2.6-5.4-4.4-2.1-2 .6-.1 4.3-.6 5.5-.6 4.3-.5 2-.3c1.4 0 2.6-.2 3.9-.4l4.8-.5 6.3-.7 2-.2.8-.1h-.5V87l-.5-5.3-.2-2.7-.2-2.2c0-.7 0-1.5-.2-2.2l-.3-3.1a.5.5 0 0 1 0-.2 45 45 0 0 0-.4-4.6l-.3-3-.3-2.5-.2-1.9-.2-1.9-.1-1.4c.2-.8-.2-1.5-.3-2.2 0-1-.2-2-.3-2.9a1.4 1.4 0 0 0-.2-.4c0-.2 0-.4.3-.5l-.3-.2.6-.2-.4-.2a23.4 23.4 0 0 0-3.1-1.5 16 16 0 0 0-3.2-1.1l-2.8-.5-4.3-.5-4.1-.5a12.8 12.8 0 0 0-3.9.1l-2.7.3-2 .3-2.4.4-2.6.4-2.7.2-4.3.6-2.3.2-3.4.4-3.4.4-3.9.3-2.1.1-2.4.2-3.2.3-5 .5c-1 0-1.9 0-2.8.2s-1.5.1-2.3.2l-3.5.4-5.4.3-5.7.4-3.3.3-2.8.2a5.3 5.3 0 0 1-1.9 0h-.2l-2.6.4-3 .2-6.2.3-5.8.6-5.3.5-5.2.6-3.4.3-1.8.2-4.1.4-1.1.1-4.3.5-7.8.8-3.7.3-4.7.6-2.7.3-3 .3-1.8.3-3.9.6-2 .3-3 .3-2.2.3-4.6.5-3.5.4-4.5.6-3.8.5-5 .7-5.5.6-3.6.5-3.8.5-5 .7-3.7.5-4 .6-5 .7-2.8.5-4.8.7-4.2.5c-.7 0-1.3.2-2 .3l-2.4.3-3.2.4-5.2.7-4.2.5-1.5.1c-.3 0-.4 0-.4-.4l-.7-6.1-.3-3.4-.4-3.6c0-1-.2-1.9-.3-2.8L5 50.4 4.7 47 4 41.7 3.5 37l-.3-4-.5-4.6-.8-8.1-.3-3.5-.4-3.4-.3-3.2-.3-2.7a13 13 0 0 1-.2-3L.3 4A17.4 17.4 0 0 1 0 2.4a3.3 3.3 0 0 1 .2-1H2c1.5 0 3-.3 4.5-.4L9 .8c1.7 0 3.3-.2 4.9-.3h2c-.1 0 0 0 0 0 0-.2 0-.5.3-.5s.4.3.5.5A12.3 12.3 0 0 1 17 2l.8 7.4.8 6.9.3 3.6.7 5.6.5 4.1.7 5c.3 1.6.4 3.3.6 5l.7 4.2.3 2.8.4 3.4.6 4.6.1.7 6-.6a1.9 1.9 0 0 1-.6.2l-1.3.2a5 5 0 0 0-.5 0 .4.4 0 0 0 .3.2l2.4-.2.2-.2a1 1 0 0 0 1-.1c-.4 0-.7-.2-1 .1l-.2-.1-.4-.1 3-.4 4.6-.6a2.9 2.9 0 0 1 .6 0c.2 0 .3.1.4-.1a.3.3 0 0 1 .3 0c.4.3.9.1 1.3.1a8.9 8.9 0 0 0 1.4 0l.4-.2 3.2-.4c.6 0 1.2 0 1.8-.2l1.5-.2 1.6-.2 2.3-.3 3.9-.4 3.5-.4.8-.1c-.5-.3-1-.1-1.3 0l-3 .2 1.2-.3 6.5-.7h.7l-.6.3c.6 0 1.2.2 2-.2l-1.4-.1a8.3 8.3 0 0 1 1-.2l6.3-.5 4.8-.4 5-.4a4.8 4.8 0 0 1 1 0h-1 .6a4 4 0 0 0 .6 0h.6l-.3-.2H84h-.6 1.4l-.3-.2 9.3-.8v.2a2 2 0 0 0 .4 0l8-.5a1 1 0 0 0 .5-.2 13.5 13.5 0 0 1-2 0 17.3 17.3 0 0 1-2 0 2.5 2.5 0 0 1 .4 0l6.2-.6 5-.4 3.3-.4a1.2 1.2 0 0 1 .8 0c.2.2.4 0 .6 0h1.3l2.4-.3c.4 0 1 0 1.4-.2l2.9-.2 1.5-.2 4.4-.5h.1a27.3 27.3 0 0 0 5.6-.8 1.2 1.2 0 0 1-1 0l1.1-.2 5.4-.6h.8c.3 0 .5-.3.7 0 0 0 .2 0 .2-.2s.2-.2.3 0h.1l2.7-.1 2.3-.3c.6 0 1.2 0 1.8-.2a2 2 0 0 0 .5-.2 1 1 0 0 0 .3 0l2.5-.2-.4-.2a1.3 1.3 0 0 1-.6 0l1.7-.2a1.3 1.3 0 0 1-.1.1 2.8 2.8 0 0 1-.3 0c0 .2.1.2.2.2l2.8-.3c.7 0 1.3-.3 2-.4l1.7-.1 1.7-.3c0-.3-.3-.3-.5-.2l-3.4.5c-.6 0-1.3.3-1.9.4a2.5 2.5 0 0 1-.9 0 1.1 1.1 0 0 1 .3-.1l3.8-.6 6.7-1 1.3-.1h1.1a4.6 4.6 0 0 1 1-.3.7.7 0 0 1 .1 0v.2h-.6v.1l.6-.1.8-.1 2.6-.2.1-.1h1a1.6 1.6 0 0 0 .3-.2 7 7 0 0 0 1 0c.3 0 .7 0 1-.3a2.5 2.5 0 0 0-.4 0l-1.2.2a2.8 2.8 0 0 0-.3.1l-1-.1c.5-.1 1.1-.3 1.7-.3l3.5-.4a.7.7 0 0 1 .1 0c-.3.2-.7 0-.8.4-.2-.2-.5-.2-.7-.1s-.5-.1-.8.2l1.5-.1a.6.6 0 0 1 .1 0l4.2-.6 1.8-.1a2.1 2.1 0 0 0 .7-.2 2.4 2.4 0 0 0-1.3 0l-1.4.1-1.3.1a72.6 72.6 0 0 1 8.4-.9l-2 .2a.7.7 0 0 0-.5.3 2.6 2.6 0 0 0-1.7.1c.6 0 1.2.2 1.7 0ZM32.6 54.5a5.3 5.3 0 0 0-.6 0 1 1 0 0 0-.3.2 1.7 1.7 0 0 0 .7 0s.1-.1.2-.2c.4.1.4.1.7-.2Zm222.6 35.2-1.3.1v.2a3.2 3.2 0 0 0 1.3-.3l1 .1 1.2-.2-1.1.1v.1c-.4 0-.7-.3-1 0Zm5.3-.4a8 8 0 0 0-1 0c-.3 0-.6-.1-.9.1a16.9 16.9 0 0 0 1.8 0l.1-.2h.9-.9ZM62.3 50.9a13.9 13.9 0 0 0-2 0c-.1.3 0 .3.2.3l1.3-.1a3 3 0 0 0 .5-.2 2.8 2.8 0 0 0 1 0c-.5-.3-.8-.3-1 0Zm225.4 36.4a71 71 0 0 0 7-.9 1.4 1.4 0 0 0 0-.1c-2.4.3-4.7.5-7 1ZM103 47.3a7 7 0 0 0 2.1 0 4.3 4.3 0 0 0-2.1 0Zm-76 8c-.6-.2-1.2 0-1.8 0a4 4 0 0 0 1.7 0Zm137-15.2c-.3-.4-.7-.4-1.4 0Zm28.5-3.7v-.2a2.3 2.3 0 0 0-1.3.4ZM253 90.1v-.2l-1 .2v.1Zm-90.8-49.7v-.2c-.5 0-.5 0-.9.3Zm-56 6.7V47h-.8v.2Zm.3-.1a.6.6 0 0 0 .7 0Zm114.2-13.1h.7ZM207.7 35h-.7Zm50.5 54.5v-.1h-.4v.2ZM135.3 43.8v-.1h-.3ZM76 49.5h-.4ZM244.2 91v.1h.4V91Z" data-name="Layer 1"/></g></svg>