<svg xmlns="http://www.w3.org/2000/svg" viewBox="0 0 56.754 38.759">
  <defs>
    <style>
      .cls-1 {
        fill: #ffffff
      }

      .cls-2 {
        fill: #616161
        stroke: #616161
      }
    </style>
  </defs>
  <g id="cart-icon" transform="translate(-1353.498 -66)">
    <g id="Group_913" data-name="Group 913" transform="translate(-6383 249)">
      <g id="box" transform="translate(7737 -251.515)">
        <g id="Group_911" data-name="Group 911" transform="translate(0.001 69.015)">
          <path id="Path_12846" data-name="Path 12846" class="cls-1" d="M27.875,1,17.468,4.018,7.058,7.04l-5.9,9.727H7.5L7.205,29.295,27.47,37.253l21.076-7.959V16.767h6.337l-5.969-10.1Z"/>
          <path id="Path_12845" data-name="Path 12845" class="cls-2" d="M55.654,85.562l-6.34-10.18a.729.729,0,0,0-.376-.269l-20.8-6.1h-.423a.178.178,0,0,0-.141.045L6.859,75.069c-.094.045-.141.045-.188.09a.623.623,0,0,0-.141.179L.1,85.562a.637.637,0,0,0,.235.9.524.524,0,0,0,.376.09l5.683-.09V98.388a.581.581,0,0,0,.423.583l20.664,7.758h.047a.441.441,0,0,0,.235.045h.188c.047,0,.047,0,.094-.045L48.7,98.971a.619.619,0,0,0,.423-.583V86.459l5.917.09a.524.524,0,0,0,.376-.09A.637.637,0,0,0,55.654,85.562ZM7.047,85.2l-5.166.09,5.636-9.059.141-.045L26.49,70.674l-8.782,14.35L7.094,85.2Zm20.053,20L7.751,97.939V86.459l10.379-.135a.657.657,0,0,0,.564-.314L27.1,72.2Zm20.711-7.265L28.462,105.2V71.8L37.1,85.966a.657.657,0,0,0,.564.314l10.144.179v11.48Zm.7-12.781h-.047L38.09,85.024,29.355,70.719l18.926,5.516,5.636,9.014Z" transform="translate(-0.001 -69.015)"/>
        </g>
      </g>
    </g>
  </g>
</svg>
