<svg width="12" height="12" viewBox="0 0 12 12" fill="none" xmlns="http://www.w3.org/2000/svg">
<path d="M11.6124 2.07206C12.0782 1.60622 12.0782 0.849702 11.6124 0.383864C11.1465 -0.0819748 10.39 -0.0819748 9.92417 0.383864L5.99995 4.31181L2.072 0.38759C1.60616 -0.0782481 0.849641 -0.0782481 0.383803 0.38759C-0.0820358 0.853429 -0.0820358 1.60995 0.383803 2.07579L4.31175 6.00001L0.387529 9.92796C-0.0783091 10.3938 -0.0783091 11.1503 0.387529 11.6162C0.853368 12.082 1.60989 12.082 2.07573 11.6162L5.99995 7.68821L9.9279 11.6124C10.3937 12.0783 11.1503 12.0783 11.6161 11.6124C12.0819 11.1466 12.0819 10.3901 11.6161 9.92424L7.68815 6.00001L11.6124 2.07206Z" fill="black"/>
</svg>
