<svg xmlns="http://www.w3.org/2000/svg" width="14" height="16"><path data-name="regular copy" d="M13.6 2 11.9.5a1.5 1.5 0 0 0-1-.4H5.5A1.5 1.5 0 0 0 4 1.5V3H1.5A1.5 1.5 0 0 0 0 4.5v10A1.5 1.5 0 0 0 1.5 16h7a1.5 1.5 0 0 0 1.5-1.5V13h2.5a1.5 1.5 0 0 0 1.5-1.5V3.1a1.5 1.5 0 0 0-.4-1ZM8.3 14.6H1.7a.2.2 0 0 1-.2-.2V4.7a.2.2 0 0 1 .2-.2H4v7A1.5 1.5 0 0 0 5.5 13h3v1.3a.2.2 0 0 1-.2.2Zm4-3H5.7a.2.2 0 0 1-.2-.2V1.7a.2.2 0 0 1 .2-.2H9v2.8a.8.8 0 0 0 .8.7h2.7v6.3a.2.2 0 0 1-.2.2Zm.2-8h-2v-2h.3a.2.2 0 0 1 .1 0l1.5 1.6a.2.2 0 0 1 .1.1Z"/></svg>