<svg xmlns="http://www.w3.org/2000/svg" viewBox="0 0 833.83 245.52"><g data-name="Layer 2"><g data-name="Layer 1"><path d="M833.83 234.81h-1.55l-67.68.06-46.32.06-37.91.06-49.68.06-38.52.06-49 .06-43.67.06-43.8.06-35.28.06c-1.53 0-1.53 0-1.53 1.58v8.59H0V12.77c0-2.15-.26-1.94 1.9-1.94h410.64c2.42 0 2.11.32 2.12-2.08V.69c.39 0 .66-.1.93-.11h1.32l76.45-.07 43.91-.06 43.56-.06 43.92-.06 43.67-.06 43.92-.06L756 .15l43.94-.06c10.72 0 21.43 0 32.15-.09 1.24 0 1.7.34 1.5 1.54a.48.48 0 000 .12q0 50.16.06 100.32 0 28.68.06 57.35 0 28.38.06 56.76c0 5.72 0 11.44.06 17.16zm-416.7-13.44h1.56l36.83-.06 44.28-.06 43.32-.06 44-.06 43.56-.06 46.44-.06 41-.06 44.88-.06h39.6c5.32 0 10.64-.06 16 0 .91 0 1.32-.22 1.24-1.2s-.07-2.24-.07-3.36q0-28.56-.06-57.12 0-46.86-.06-93.71l-.06-49.92c0-1.53 0-1.53-1.6-1.53l-18.24.06-43.55.06-48.12.06-39.36.06-49.68.06-37.91.06-44.13.02-43.44.06-45.83.06h-29.4c-.5 0-1 .06-1.63.09v10.18H14v205.31c0 1.23.32 1.53 1.53 1.53H415.6c1.56 0 1.57 0 1.57-1.57z"/><path d="M518.8 123a40.64 40.64 0 013.9 3.19c7.53 7.88 10.37 17.3 8.71 28A37.8 37.8 0 01494.28 186H433c-1.68 0-1.68 0-1.68-1.69V61.9c0-1.63 0-1.63 1.61-1.63 20.28 0 40.56-.1 60.83 0 15.88.1 27.47 7.57 34.47 21.66 5.5 11.08 5.09 22.26-1.53 33a25.73 25.73 0 01-7.9 8.07zm-42.5-12.46h18.11a12.53 12.53 0 00.08-25.05c-12.27-.06-24.55 0-36.82 0-1 0-1.19.35-1.19 1.25v22.55c0 1.08.34 1.33 1.37 1.32 6.15-.08 12.29-.06 18.45-.06zm0 50.22h18a11.68 11.68 0 009-3.91 12 12 0 002.31-13.61c-2.2-5.07-6.35-7.46-11.82-7.48h-36c-1 0-1.3.28-1.29 1.28v22.44c0 1.07.31 1.35 1.36 1.34 6.14-.07 12.28-.05 18.44-.05zM609 188.85a65 65 0 1165-63.56c-.8 34.64-29.17 63.56-65 63.56zm.09-105A40 40 0 00569 123.77c0 21.54 18 39.6 39.25 39.88 22.68.3 40.77-18.32 40.74-39.81a40 40 0 00-39.9-39.99zM50.29 123.7a65 65 0 1164.78 65.16c-35.58-.08-64.78-29.41-64.78-65.16zm25-.07c-.08 21.84 17.89 39.38 38.75 40a39.91 39.91 0 10-38.75-40zM196.57 123V62c0-1.68 0-1.68 1.68-1.68 12.2 0 24.4-.05 36.59 0a60.56 60.56 0 0142 16.47c12.77 11.76 20 26.42 20.37 43.83.57 25.89-10.88 45.29-33.32 58.06a58.15 58.15 0 01-29.48 7.32q-18.18-.06-36.35 0c-1.24 0-1.52-.36-1.52-1.55q.06-30.72.03-61.45zM222 85.59v73.83c0 .75-.08 1.39 1.07 1.37 4.27-.06 8.56.09 12.83 0a37.64 37.64 0 00.92-75.19c-4.7-.24-9.43-.07-14.15-.08a5.37 5.37 0 00-.67.07zM313.93 123.12V61.93c0-1.66 0-1.66 1.71-1.66 12.19 0 24.39-.06 36.59 0a60.58 60.58 0 0141.9 16.4c12.81 11.78 20.06 26.47 20.44 43.92.56 25.89-10.9 45.29-33.34 58.05a58.16 58.16 0 01-29.48 7.36h-36.12c-1.7 0-1.7 0-1.7-1.66zm25.38 0v36.44c0 .82.14 1.23 1.11 1.22 4.27 0 8.56.1 12.83 0 19.88-.66 36-17 36.24-36.7.25-20.57-15.23-37.41-35.5-38.49-4.38-.24-8.79 0-13.19-.12-1.28 0-1.5.4-1.5 1.56q.04 18.03.01 36.07zM784.28 60.34c-.4.67-.68 1.18-1 1.67q-18.39 30-36.8 59.91a1.92 1.92 0 000 2.35q18.46 30 36.87 60c.28.46.55.94 1 1.68h-29.12a2.17 2.17 0 01-2.19-1.21q-11.25-19-22.58-37.94c-.23-.37-.46-.74-.8-1.31-.34.52-.6.89-.83 1.28q-11.34 18.94-22.65 37.91a2.29 2.29 0 01-2.27 1.28c-9.07-.05-18.15 0-27.23 0H675c.34-.6.54-1 .76-1.33q18.48-30.12 37-60.22a2.16 2.16 0 000-2.67q-18.5-30-36.92-60.12c-.23-.36-.44-.73-.77-1.29.62 0 1-.07 1.46-.07h27.6a2 2 0 012 1.13q11.25 18.91 22.58 37.8c.26.44.54.88.92 1.51.32-.47.56-.81.77-1.16q11.37-19.07 22.72-38.14a2 2 0 012-1.14h27.72c.35.01.77.05 1.44.08z"/></g></g></svg>