<svg width="16" height="13" viewBox="0 0 16 13" fill="none" xmlns="http://www.w3.org/2000/svg">
<path d="M14.85 7.04539C15.1972 6.72928 15.1972 6.21592 14.85 5.89982L11.2944 2.66288C10.9472 2.34678 10.3833 2.34678 10.0361 2.66288C9.68889 2.97899 9.68889 3.49235 10.0361 3.80845L12.075 5.66463H6.22222C5.73055 5.66463 5.33333 6.02626 5.33333 6.47386C5.33333 6.92147 5.73055 7.2831 6.22222 7.2831H12.075L10.0361 9.13927C9.68889 9.45538 9.68889 9.96874 10.0361 10.2848C10.3833 10.601 10.9472 10.601 11.2944 10.2848L14.85 7.04791V7.04539ZM5.33333 2.4277C5.825 2.4277 6.22222 2.06607 6.22222 1.61847C6.22222 1.17086 5.825 0.809235 5.33333 0.809235H3.55555C2.08333 0.809235 0.888885 1.89664 0.888885 3.23693V9.7108C0.888885 11.0511 2.08333 12.1385 3.55555 12.1385H5.33333C5.825 12.1385 6.22222 11.7769 6.22222 11.3293C6.22222 10.8817 5.825 10.52 5.33333 10.52H3.55555C3.06389 10.52 2.66666 10.1584 2.66666 9.7108V3.23693C2.66666 2.78933 3.06389 2.4277 3.55555 2.4277H5.33333Z" fill="black"/>
</svg>
