<svg width="14" height="13" viewBox="0 0 14 13" fill="none" xmlns="http://www.w3.org/2000/svg">
<path d="M0 1.03704C0 0.463426 0.446875 0 1 0H13C13.5531 0 14 0.463426 14 1.03704C14 1.61065 13.5531 2.07407 13 2.07407H1C0.446875 2.07407 0 1.61065 0 1.03704ZM0 6.22222C0 5.64861 0.446875 5.18518 1 5.18518H13C13.5531 5.18518 14 5.64861 14 6.22222C14 6.79583 13.5531 7.25926 13 7.25926H1C0.446875 7.25926 0 6.79583 0 6.22222ZM14 11.4074C14 11.981 13.5531 12.4444 13 12.4444H1C0.446875 12.4444 0 11.981 0 11.4074C0 10.8338 0.446875 10.3704 1 10.3704H13C13.5531 10.3704 14 10.8338 14 11.4074Z" fill="black"/>
</svg>
