<svg width="109" height="32" viewBox="0 0 109 32" fill="none" xmlns="http://www.w3.org/2000/svg">
<g clip-path="url(#clip0_162_508)">
<path d="M108.596 30.5444H108.394L99.5902 30.5522L93.5649 30.56L88.6335 30.5678L82.171 30.5756L77.1603 30.5834L70.7863 30.5912L65.1057 30.599L59.4081 30.6068L54.8188 30.6146C54.6198 30.6146 54.6198 30.6146 54.6198 30.8202V31.9376H0.130057V1.66114C0.130057 1.38146 0.0962363 1.40878 0.377212 1.40878H53.7938C54.1086 1.40878 54.0683 1.45041 54.0696 1.13821V0.0897561C54.1203 0.0897561 54.1554 0.076748 54.1905 0.0754471H54.3623L64.307 0.0663415L70.0188 0.0585366L75.6852 0.0507317L81.3983 0.0429268L87.079 0.035122L92.7922 0.0273171L98.4715 0.0195122L104.187 0.0117073C105.582 0.0117073 106.975 0.0117073 108.369 0C108.531 0 108.591 0.0442276 108.565 0.200325C108.564 0.205508 108.564 0.210752 108.565 0.215935C108.565 4.56585 108.567 8.91577 108.572 13.2657C108.572 15.7528 108.575 18.2396 108.58 20.7259C108.58 23.187 108.583 25.6481 108.588 28.1093C108.588 28.8533 108.588 29.5974 108.596 30.3415V30.5444ZM54.3909 28.7961H54.5938L59.3847 28.7883L65.1447 28.7805L70.7798 28.7727L76.5034 28.7649L82.1697 28.7571L88.2107 28.7493L93.544 28.7415L99.3821 28.7337H104.533C105.225 28.7337 105.917 28.7259 106.615 28.7337C106.733 28.7337 106.786 28.705 106.776 28.5776C106.766 28.4501 106.767 28.2862 106.767 28.1405C106.767 25.6637 106.764 23.187 106.759 20.7102C106.759 16.6465 106.756 12.5832 106.751 8.52032L106.743 2.02667C106.743 1.82764 106.743 1.82764 106.535 1.82764L104.163 1.83545L98.4975 1.84325L92.238 1.85106L87.118 1.85886L80.6556 1.86667L75.7242 1.87447L69.9837 1.87707L64.333 1.88488L58.3714 1.89268H54.547C54.4819 1.89268 54.4169 1.90049 54.3349 1.90439V3.22862H1.9512V29.9356C1.9512 30.0956 1.99282 30.1346 2.15022 30.1346H54.1918C54.3948 30.1346 54.3961 30.1346 54.3961 29.9304L54.3909 28.7961Z" fill="black"/>
<path d="M67.6163 16C67.7938 16.1277 67.9632 16.2663 68.1236 16.415C69.1031 17.44 69.4725 18.6654 69.2566 20.0572C69.072 21.2073 68.4852 22.2544 67.6007 23.0122C66.7162 23.77 65.5914 24.1892 64.4267 24.1951H56.4553C56.2368 24.1951 56.2368 24.1951 56.2368 23.9753V8.05203C56.2368 7.83999 56.2367 7.83999 56.4462 7.83999C59.0842 7.83999 61.7223 7.82699 64.359 7.83999C66.4247 7.853 67.9324 8.82471 68.8429 10.6576C69.5584 12.0989 69.505 13.5532 68.6439 14.9502C68.3833 15.3719 68.0323 15.7305 67.6163 16ZM62.0878 14.3792H64.4436C64.8678 14.3686 65.2712 14.193 65.568 13.8897C65.8648 13.5864 66.0316 13.1793 66.0329 12.755C66.0343 12.3306 65.8701 11.9225 65.5752 11.6173C65.2804 11.3121 64.8781 11.1339 64.454 11.1206C62.8579 11.1128 61.2605 11.1206 59.6644 11.1206C59.5343 11.1206 59.5096 11.1662 59.5096 11.2832V14.2166C59.5096 14.3571 59.5538 14.3896 59.6878 14.3883C60.4878 14.3779 61.2865 14.3805 62.0878 14.3805V14.3792ZM62.0878 20.9119H64.4293C64.6496 20.9171 64.8685 20.8743 65.0706 20.7865C65.2728 20.6986 65.4534 20.5679 65.6 20.4032C65.8263 20.175 65.9765 19.8824 66.0303 19.5656C66.0841 19.2487 66.0388 18.923 65.9005 18.6328C65.6143 17.9733 65.0745 17.6624 64.3629 17.6598H59.68C59.5499 17.6598 59.5109 17.6963 59.5122 17.8263V20.7454C59.5122 20.8845 59.5525 20.921 59.6891 20.9197C60.4878 20.9106 61.2865 20.9132 62.0878 20.9132V20.9119ZM79.3496 24.5658C77.6694 24.5654 76.0274 24.0645 74.6332 23.1268C73.239 22.1892 72.1557 20.8574 71.5216 19.3015C70.8875 17.7456 70.7314 16.036 71.0731 14.3909C71.4148 12.7458 72.2389 11.2399 73.4402 10.0652C74.6415 8.89049 76.1656 8.10034 77.8179 7.79556C79.4702 7.49077 81.1758 7.68517 82.7172 8.35395C84.2586 9.02273 85.5657 10.1356 86.4719 11.5504C87.378 12.9653 87.8421 14.6181 87.8049 16.2979C87.7008 20.8039 84.0104 24.5658 79.3496 24.5658ZM79.3613 10.9073C78.6779 10.9058 78.0009 11.0389 77.3689 11.299C76.737 11.5592 76.1624 11.9413 75.6782 12.4235C75.1939 12.9057 74.8094 13.4786 74.5465 14.1094C74.2837 14.7403 74.1477 15.4167 74.1463 16.1002C74.1463 18.9021 76.4878 21.2514 79.252 21.2878C82.2023 21.3268 84.5555 18.9047 84.5516 16.1093C84.5512 14.7317 84.0046 13.4106 83.0317 12.4354C82.0587 11.4603 80.7388 10.9108 79.3613 10.9073ZM6.67188 16.091C6.676 14.4184 7.17612 12.7846 8.10897 11.3963C9.04182 10.0079 10.3655 8.92747 11.9125 8.29155C13.4595 7.65563 15.1604 7.49284 16.8 7.82376C18.4395 8.15468 19.9441 8.96445 21.1234 10.1506C22.3026 11.3368 23.1036 12.8461 23.4249 14.4876C23.7463 16.129 23.5735 17.8289 22.9286 19.3722C22.2836 20.9155 21.1954 22.2328 19.8016 23.1575C18.4079 24.0822 16.7712 24.5728 15.0985 24.5671C10.4702 24.5567 6.67188 20.7415 6.67188 16.091ZM9.92391 16.0819C9.9135 18.9229 12.2511 21.2045 14.9646 21.2852C15.9967 21.3152 17.0144 21.0367 17.8875 20.4853C18.7606 19.934 19.4494 19.1347 19.8659 18.1898C20.2825 17.2449 20.4077 16.1973 20.2257 15.1808C20.0437 14.1644 19.5627 13.2253 18.8442 12.4836C18.1257 11.7419 17.2024 11.2314 16.1922 11.0172C15.182 10.803 14.1309 10.895 13.1733 11.2813C12.2156 11.6676 11.395 12.3307 10.8161 13.1858C10.2373 14.041 9.92667 15.0493 9.92391 16.0819ZM25.7002 16V8.06503C25.7002 7.8465 25.7002 7.8465 25.9187 7.8465C27.5057 7.8465 29.0927 7.83999 30.6784 7.8465C32.7075 7.83035 34.6645 8.5978 36.1418 9.98894C37.8029 11.5187 38.7434 13.4257 38.7915 15.6904C38.8657 19.0582 37.3763 21.5818 34.4572 23.2429C33.2859 23.8945 31.9625 24.2231 30.6224 24.1951C29.0459 24.1899 27.4697 24.1899 25.894 24.1951C25.7327 24.1951 25.6963 24.1483 25.6963 23.9935C25.7015 21.3294 25.7028 18.6649 25.7002 16ZM29.0081 11.1337V20.7376C29.0081 20.8351 28.9977 20.9184 29.1473 20.9158C29.7028 20.908 30.2608 20.9275 30.8163 20.9158C32.0739 20.8716 33.2663 20.3448 34.1459 19.4449C35.0255 18.5449 35.5249 17.3408 35.5403 16.0824C35.5557 14.8241 35.0859 13.6081 34.2286 12.6869C33.3713 11.7656 32.1922 11.2099 30.9359 11.135C30.3246 11.1037 29.7093 11.1258 29.0953 11.1245C29.0661 11.1258 29.037 11.1288 29.0081 11.1337ZM40.9665 16.0156V8.05593C40.9665 7.83999 40.9665 7.83999 41.1889 7.83999C42.7746 7.83999 44.3616 7.83219 45.9486 7.83999C47.9719 7.82501 49.9235 8.58886 51.399 9.97333C53.0654 11.5057 54.0085 13.4166 54.0579 15.6865C54.1307 19.0543 52.64 21.5779 49.721 23.2377C48.5501 23.891 47.2267 24.2214 45.8862 24.1951H41.1876C40.9665 24.1951 40.9665 24.1951 40.9665 23.9792V16.0156ZM44.268 16.0156V20.7558C44.268 20.8624 44.2862 20.9158 44.4124 20.9145C44.9678 20.9145 45.5259 20.9275 46.0813 20.9145C48.6673 20.8286 50.7642 18.7031 50.7954 16.1405C50.828 13.4647 48.8143 11.2741 46.1776 11.1337C45.6078 11.1024 45.0341 11.1337 44.4618 11.118C44.2953 11.118 44.2667 11.1701 44.2667 11.321C44.2701 12.8845 44.2706 14.4486 44.268 16.013V16.0156ZM102.15 7.8491C102.098 7.93625 102.062 8.00259 102.02 8.06633C100.425 10.668 98.8297 13.2657 97.2332 15.8595C97.1993 15.9033 97.1809 15.957 97.1809 16.0124C97.1809 16.0677 97.1993 16.1214 97.2332 16.1652C98.834 18.7668 100.433 21.3684 102.029 23.9701C102.066 24.0299 102.101 24.0924 102.159 24.1886H98.3714C98.3135 24.195 98.255 24.1833 98.204 24.1551C98.153 24.1269 98.1119 24.0836 98.0865 24.0312C97.1109 22.3835 96.1318 20.7384 95.1493 19.0959C95.1194 19.0478 95.0894 18.9997 95.0452 18.9255C95.001 18.9932 94.9672 19.0413 94.9372 19.092C93.9538 20.7345 92.9717 22.3783 91.9909 24.0234C91.9644 24.0779 91.922 24.123 91.8692 24.1528C91.8165 24.1825 91.7559 24.1955 91.6956 24.1899C90.5158 24.1834 89.3346 24.1899 88.1535 24.1899H87.935C87.9792 24.1119 88.0052 24.0598 88.0338 24.0169C89.6364 21.4049 91.2408 18.7937 92.8468 16.1834C92.8858 16.1339 92.9069 16.0727 92.9069 16.0097C92.9069 15.9468 92.8858 15.8856 92.8468 15.8361C91.2425 13.2345 89.6416 10.6276 88.0442 8.0156C88.0143 7.96877 87.987 7.92064 87.9441 7.8478C88.0247 7.8478 88.0742 7.83869 88.134 7.83869H91.7242C91.7775 7.83349 91.831 7.84481 91.8775 7.87111C91.9241 7.89741 91.9614 7.93742 91.9844 7.98568C92.96 9.62558 93.9391 11.2646 94.9216 12.9028C94.9555 12.96 94.9919 13.0172 95.0413 13.0992C95.0829 13.038 95.1142 12.9938 95.1415 12.9483C96.1275 11.2945 97.1126 9.64075 98.0969 7.98699C98.1197 7.93848 98.157 7.8982 98.2035 7.87165C98.2501 7.84511 98.3037 7.8336 98.3571 7.83869H101.963C102.008 7.83999 102.063 7.8452 102.15 7.8491Z" fill="black"/>
</g>
<defs>
<clipPath id="clip0_162_508">
<rect width="109" height="32" fill="white"/>
</clipPath>
</defs>
</svg>
