<svg width="14" height="14" viewBox="0 0 14 14" fill="none" xmlns="http://www.w3.org/2000/svg">
<path d="M5.20898 1.88125L6.16055 3.5H6.125H4.15625C3.55195 3.5 3.0625 3.01055 3.0625 2.40625C3.0625 1.80195 3.55195 1.3125 4.15625 1.3125H4.21641C4.62383 1.3125 5.00391 1.52852 5.20898 1.88125ZM1.75 2.40625C1.75 2.8 1.8457 3.17188 2.0125 3.5H0.875C0.391016 3.5 0 3.89102 0 4.375V6.125C0 6.60898 0.391016 7 0.875 7H13.125C13.609 7 14 6.60898 14 6.125V4.375C14 3.89102 13.609 3.5 13.125 3.5H11.9875C12.1543 3.17188 12.25 2.8 12.25 2.40625C12.25 1.07734 11.1727 0 9.84375 0H9.78359C8.91133 0 8.10195 0.462109 7.65898 1.21406L7 2.33789L6.34102 1.2168C5.89805 0.462109 5.08867 0 4.21641 0H4.15625C2.82734 0 1.75 1.07734 1.75 2.40625ZM10.9375 2.40625C10.9375 3.01055 10.448 3.5 9.84375 3.5H7.875H7.83945L8.79102 1.88125C8.99883 1.52852 9.37617 1.3125 9.78359 1.3125H9.84375C10.448 1.3125 10.9375 1.80195 10.9375 2.40625ZM0.875 7.875V12.6875C0.875 13.4121 1.46289 14 2.1875 14H6.125V7.875H0.875ZM7.875 14H11.8125C12.5371 14 13.125 13.4121 13.125 12.6875V7.875H7.875V14Z" fill="black"/>
</svg>
