<svg xmlns="http://www.w3.org/2000/svg" viewBox="0 0 471.8 7.6"><g data-name="Layer 2"><g data-name="Layer 16"><path fill="#0" d="M472 3V1c-2-1-5 0-7 1h-25l-4-1a27 27 0 0 1-5 0 35 35 0 0 0-5 0l-4 1a8 8 0 0 0-5 0 13 13 0 0 0-7-1 12 12 0 0 1-2 1 11 11 0 0 0-2 0 11 11 0 0 1-4 0 15 15 0 0 0-4-1 55 55 0 0 1-6 1 5 5 0 0 1-2 0l-6-1h-2a2 2 0 0 0-3 2l-1-2c0 2-1 1-2 1h-13l-3-1a9 9 0 0 0-5 0 22 22 0 0 0-2 1 5 5 0 0 1-2 0h-5l-4-1-3 1-1-1-6 1a33 33 0 0 1-10-1 8 8 0 0 0-4 1 2 2 0 0 1-1 0 18 18 0 0 0-4 0h-6l-7-1-3 1a19 19 0 0 0-5-1l-11 1-3-1h-1a13 13 0 0 1-4 0 14 14 0 0 0-5 1 8 8 0 0 1-4-1 7 7 0 0 0-1 0 7 7 0 0 0-5 1l-2-1a22 22 0 0 0-3 1l-1-1-4 2v1h-1V2l-1-1h-2l-4 1a2 2 0 0 1-1 0 6 6 0 0 0-4-1h-3a12 12 0 0 1-2 0h-26a17 17 0 0 1-2 0h-7a11 11 0 0 0-2 1 12 12 0 0 0-2 0h-3a7 7 0 0 0-1-1 24 24 0 0 0-5 0h-6a14 14 0 0 1-6 0 14 14 0 0 0-4 0h-6a25 25 0 0 1-5 1l-5-1-1 1a8 8 0 0 0-2 0h-7c-2 0-4-2-5 0h-2a7 7 0 0 0-3-1l-8 1-7-1a14 14 0 0 0-1 0l-6 1H97l-3-1h-3l-1 1a15 15 0 0 0-3-1h-5a18 18 0 0 0-3 0 13 13 0 0 1-4 0 5 5 0 0 0-2 0l-4 1a3 3 0 0 1-2-1 2 2 0 0 0-2 1h-1l-1-1-2 1a12 12 0 0 0-5-1 25 25 0 0 1-3 1H41a4 4 0 0 1-1 0 7 7 0 0 0-1-1 15 15 0 0 1-5 0h-6a11 11 0 0 0-2 0h-4a5 5 0 0 0-2 0H7a2 2 0 0 1-1 0H4a4 4 0 0 1-4 0v5a44 44 0 0 0 6 1 6 6 0 0 1 3-1h6a4 4 0 0 1 2 0 4 4 0 0 0 3 0 2 2 0 0 1 1 0 7 7 0 0 0 6 0h1a2 2 0 0 0 2 1 6 6 0 0 1 3 0h9l7-1h10a5 5 0 0 1 2 1 3 3 0 0 0 1 0 5 5 0 0 1 3-1 12 12 0 0 0 3 1h13a20 20 0 0 1 2-1l5 1h5a2 2 0 0 1 1 0h9a10 10 0 0 1 1-1h2a4 4 0 0 0 3 1 18 18 0 0 1 3 0 3 3 0 0 0 2-1 3 3 0 0 1 2 0 6 6 0 0 0 4 1l2 1V6l6 1h6a4 4 0 0 0 1 0 4 4 0 0 1 2 0 18 18 0 0 0 4 0l5-1a6 6 0 0 1 1 0h1l6 1 4-1a25 25 0 0 1 5 1h6a7 7 0 0 0 2 0h1a35 35 0 0 1 5-1l7 1a10 10 0 0 0 5-1l3 1h5a4 4 0 0 1 1-1 5 5 0 0 0 3 0h5a8 8 0 0 1 1 0 10 10 0 0 0 2 1l4-1h17a18 18 0 0 0 3 0 6 6 0 0 0 2 0 2 2 0 0 1 3 0 3 3 0 0 0 3 1l1-1 3 1a3 3 0 0 1 1 0h4a6 6 0 0 1 2 0 3 3 0 0 0 4-1 2 2 0 0 0 3 1 6 6 0 0 1 1 0 4 4 0 0 0 2 0 16 16 0 0 0 2-1l2 1a8 8 0 0 1 2 0h5a3 3 0 0 0 2 0 2 2 0 0 1 4 0 2 2 0 0 0 1 0l4-1a3 3 0 0 1 1 0 13 13 0 0 0 6 1 3 3 0 0 0 2-1h2a12 12 0 0 0 5 1 7 7 0 0 1 2-1 21 21 0 0 0 6 1h5a3 3 0 0 1 3 0 2 2 0 0 0 1 0 13 13 0 0 1 5 0 17 17 0 0 0 3 0h6a1 1 0 0 0 1 0 35 35 0 0 1 6 0h51a3 3 0 0 0 1 0l2-1 1 1h36a6 6 0 0 1 2 0 5 5 0 0 0 4 0h16a19 19 0 0 0 3 0h9a27 27 0 0 0 9-1z" data-name="Layer 4"/></g></g></svg>